<?xml version="1.0" standalone="no"?>
<!DOCTYPE svg PUBLIC "-//W3C//DTD SVG 20010904//EN"
 "http://www.w3.org/TR/2001/REC-SVG-20010904/DTD/svg10.dtd">
<svg version="1.0" xmlns="http://www.w3.org/2000/svg"
 width="1830.000000pt" height="589.000000pt" viewBox="0 0 1830.000000 589.000000"
 preserveAspectRatio="xMidYMid meet">

<g transform="translate(0.000000,589.000000) scale(0.100000,-0.100000)"
fill="#000000" stroke="none">
<path d="M11765 4807 c-93 -31 -153 -83 -201 -177 -27 -51 -29 -63 -28 -170 0
-135 16 -181 89 -259 57 -61 123 -90 212 -95 l68 -4 -2 -74 c-4 -173 -121
-375 -292 -501 -52 -38 -53 -41 -48 -79 6 -46 47 -109 82 -128 21 -11 32 -11
67 1 51 17 165 90 230 148 114 102 243 318 292 491 48 170 53 421 12 561 -37
124 -115 221 -214 267 -68 31 -201 40 -267 19z"/>
<path d="M9478 4734 c-109 -20 -304 -78 -425 -126 l-103 -41 0 -83 0 -84 35 0
c61 0 135 -21 167 -48 61 -52 58 15 58 -1244 0 -1131 0 -1152 -20 -1193 -23
-49 -73 -80 -142 -90 -46 -7 -48 -9 -48 -39 0 -17 12 -56 26 -86 46 -99 -2
-90 501 -90 l444 0 24 27 c27 31 65 122 65 156 0 20 -8 24 -62 34 -70 14 -104
35 -133 84 -19 33 -20 55 -23 665 l-3 630 31 42 c35 49 113 102 185 127 87 29
197 5 264 -58 69 -66 65 -25 71 -822 6 -799 2 -760 73 -822 135 -118 537 -119
714 0 48 32 48 32 51 92 l2 60 -62 30 c-50 24 -68 40 -93 79 l-30 49 -6 676
c-5 588 -8 684 -22 739 -54 203 -192 331 -393 367 -182 33 -343 10 -506 -71
-86 -43 -139 -81 -218 -159 l-65 -64 0 592 c0 547 -1 594 -18 624 -27 50 -62
63 -169 62 -51 -1 -128 -7 -170 -15z"/>
<path d="M6098 4403 c-29 -3 -39 -9 -42 -26 -2 -12 -9 -49 -16 -82 -34 -181
-132 -410 -224 -526 -55 -70 -122 -125 -172 -143 l-39 -13 -3 -121 -3 -122
126 0 125 0 0 -597 c0 -634 5 -714 48 -836 60 -169 187 -282 372 -333 91 -25
319 -25 410 0 142 39 272 134 321 234 41 83 29 241 -22 306 l-22 27 -36 -35
c-20 -19 -67 -50 -106 -68 -60 -28 -81 -33 -145 -33 -88 0 -132 20 -165 75
-19 34 -20 52 -23 648 l-3 612 200 0 199 0 15 38 c23 57 37 146 37 234 l0 78
-227 2 -228 3 -5 245 c-5 230 -6 248 -28 292 -29 58 -89 113 -139 127 -46 13
-154 21 -205 14z"/>
<path d="M4285 3769 c-199 -26 -388 -100 -491 -193 -272 -242 -190 -618 139
-643 123 -9 243 41 305 126 70 96 62 243 -17 314 -21 19 -48 38 -60 42 -28 8
-19 20 32 47 59 30 193 37 272 13 72 -20 146 -88 165 -150 9 -27 14 -139 17
-352 l5 -311 -68 24 c-89 33 -275 64 -379 64 -429 0 -678 -191 -701 -539 -12
-177 46 -331 168 -447 85 -80 162 -124 273 -156 115 -32 336 -33 448 0 92 26
159 59 243 117 l61 42 19 -29 c32 -49 111 -105 182 -130 55 -19 87 -23 182
-23 166 1 309 43 383 113 24 23 27 33 27 93 l0 67 -36 12 c-43 15 -99 62 -122
104 -15 28 -18 94 -22 676 -6 702 -5 681 -65 801 -77 151 -231 257 -445 304
-89 20 -409 29 -515 14z m230 -1360 c22 -6 61 -20 88 -31 l47 -21 -2 -196 -3
-196 -46 -23 c-105 -52 -244 -50 -324 6 -65 45 -96 99 -102 175 -12 144 51
253 165 287 40 12 131 12 177 -1z"/>
<path d="M15180 3773 c-141 -17 -417 -93 -542 -150 l-78 -36 0 -86 0 -87 73
-11 c98 -14 138 -35 168 -86 l24 -42 0 -660 0 -660 -23 -42 c-26 -49 -73 -77
-145 -88 -45 -7 -47 -9 -47 -39 0 -34 38 -118 69 -153 l19 -23 435 0 436 0 30
37 c32 38 61 110 61 149 0 18 -7 23 -38 29 -53 9 -98 38 -119 77 -17 31 -18
80 -21 691 l-3 659 38 34 c48 44 123 81 194 95 113 23 225 -26 279 -121 l25
-45 0 -640 c0 -597 -1 -642 -18 -673 -21 -39 -66 -68 -119 -77 -33 -6 -38 -10
-38 -33 1 -38 24 -97 55 -143 l28 -39 427 0 427 0 20 23 c31 33 64 102 70 146
l5 38 -45 7 c-60 9 -107 42 -132 91 -19 39 -20 60 -20 715 l0 675 77 39 c67
34 85 39 150 40 89 1 138 -15 190 -62 77 -70 72 -20 78 -847 5 -724 5 -741 26
-775 49 -85 142 -115 349 -113 207 1 348 34 445 103 27 20 30 26 30 80 l0 59
-37 10 c-52 14 -109 55 -130 94 -17 29 -18 89 -24 727 -5 617 -7 702 -22 755
-55 188 -158 291 -347 342 -98 27 -337 23 -445 -6 -141 -38 -271 -108 -350
-190 -22 -22 -43 -41 -47 -41 -3 0 -17 19 -31 43 -36 61 -108 124 -180 158
-129 60 -346 74 -527 34 -110 -24 -265 -103 -339 -171 l-60 -55 -6 28 c-26
127 -68 195 -133 213 -36 10 -93 11 -162 3z"/>
<path d="M8030 3764 c-455 -88 -738 -368 -838 -828 -13 -64 -17 -127 -16 -306
0 -218 1 -229 31 -342 100 -375 325 -613 671 -705 87 -24 115 -26 277 -27 168
0 186 2 270 28 232 71 395 206 395 326 0 57 -34 162 -61 186 -17 15 -21 16
-36 2 -56 -49 -204 -95 -338 -104 -233 -17 -397 97 -469 326 -67 210 -77 617
-21 836 58 224 219 362 366 313 53 -18 56 -26 22 -61 -52 -55 -77 -115 -81
-194 -8 -141 53 -256 163 -310 47 -22 70 -27 131 -27 65 1 84 5 142 34 80 41
134 101 164 185 26 72 34 200 18 277 -35 170 -176 312 -370 372 -40 13 -100
18 -225 20 -93 2 -181 1 -195 -1z"/>
<path d="M13370 3751 c-337 -74 -593 -304 -714 -639 -54 -151 -70 -259 -70
-472 0 -161 4 -212 21 -290 52 -231 128 -377 272 -521 84 -83 109 -102 201
-147 239 -118 525 -142 787 -66 233 67 433 232 433 357 0 41 -34 144 -59 176
l-18 23 -68 -41 c-128 -77 -248 -111 -390 -112 -122 0 -180 12 -258 53 -137
73 -223 234 -243 456 l-7 72 469 0 c436 0 472 2 510 19 76 35 117 115 136 270
11 94 0 242 -27 346 -22 86 -86 211 -141 275 -97 114 -212 186 -364 230 -109
32 -351 37 -470 11z m288 -290 c70 -50 103 -157 105 -346 2 -129 -10 -188 -43
-205 -11 -6 -112 -10 -239 -10 l-221 0 0 38 c0 154 45 346 101 432 77 119 203
158 297 91z"/>
<path d="M176 3691 c-28 -40 -56 -126 -56 -172 0 -24 5 -27 44 -33 60 -9 105
-42 141 -102 20 -33 125 -348 310 -927 l279 -877 203 0 c231 0 280 11 348 77
73 70 100 149 271 761 54 194 101 347 105 340 6 -12 339 -1068 361 -1146 l9
-34 217 4 c214 3 218 3 274 31 94 46 132 105 192 297 20 63 117 410 216 770
100 360 190 674 201 698 27 54 86 90 175 105 l66 11 -6 54 c-7 61 -39 143 -65
166 -16 14 -63 16 -397 14 l-378 -3 -23 -34 c-25 -37 -39 -82 -49 -154 l-6
-45 47 -8 c30 -4 59 -17 78 -34 53 -47 50 -88 -36 -455 -46 -193 -92 -423
-117 -580 -22 -143 -42 -264 -43 -269 -2 -5 -42 116 -91 268 -58 183 -123 419
-190 699 l-103 422 -183 3 c-168 2 -186 1 -226 -18 -85 -42 -128 -138 -240
-544 -41 -149 -95 -335 -120 -413 -112 -362 -136 -434 -139 -431 -6 5 -116
531 -177 843 -63 323 -67 393 -25 448 22 29 41 41 89 55 l60 17 -6 47 c-6 56
-38 133 -68 165 l-21 23 -447 0 -447 0 -27 -39z"/>
</g>
</svg>
